[Header]
FileType HTR
DataType HTRS
FileVersion 1
NumSegments 48
NumFrames 3
DataFrameRate 30
EulerRotationOrder ZYX
CalibrationUnits mm
RotationUnits Degrees
GlobalAxisofGravity Y
BoneLengthAxis Y
ScaleFactor 1.0
[SegmentNames&Hierarchy]
Wolf	GLOBAL
Becken	Wolf
Bauch	Becken
Bauch_001	Bauch
Brust	Bauch_001
Hals	Brust
Kopf_002	Hals
Kopf	Kopf_002
Unterkiefer	Kopf
Hals_fett	Unterkiefer
Maulunten	Unterkiefer
Mauloben	Kopf
MundW_L	Kopf
MundW_R	Kopf
Augen_con	Kopf
IK_Aug_R	Augen_con
IK_Aug_L	Augen_con
Aug_R	Kopf
aug_L	Kopf
Ohr_L	Kopf
Ohr_R	Kopf
Braun_O_L	Kopf
Braun_O_R	Kopf
aug_lied_O_L	Kopf
aug_lied_O_R	Kopf
aug_lied_U_L	Kopf
aug_lied_U_R	Kopf
Bauch_003	Brust
Schalterplatte_L	Bauch_003
Oberarm_L	Schalterplatte_L
Unterarm_L	Oberarm_L
Vorderpfote_L	Unterarm_L
Schalterplatte_R	Bauch_003
Oberarm_R	Schalterplatte_R
Unterarm_R	Oberarm_R
Vorderpfote_R	Unterarm_R
Schwanz	Becken
Schwanz_001	Schwanz
Schwanz_002	Schwanz_001
Schwanz_003	Schwanz_002
Oberschenkel_L	Becken
Unterschenkel_L	Oberschenkel_L
Pfote1_L	Unterschenkel_L
Pfote2_L	Pfote1_L
Oberschenkel_R	Becken
Unterschenkel_R	Oberschenkel_R
Pfote1_R	Unterschenkel_R
Pfote2_R	Pfote1_R
[BasePosition]
Wolf	0	0	0	0	0	0	1
Becken	0	0	0	0	0	0	1
Bauch	0	0	0	0	0	0	1
Bauch_001	0	0	0	0	0	0	1
Brust	0	0	0	0	0	0	1
Hals	0	0	0	0	0	0	1
Kopf_002	0	0	0	0	0	0	1
Kopf	0	0	0	0	0	0	1
Unterkiefer	0	0	0	0	0	0	1
Hals_fett	0	0	0	0	0	0	1
Maulunten	0	0	0	0	0	0	1
Mauloben	0	0	0	0	0	0	1
MundW_L	0	0	0	0	0	0	1
MundW_R	0	0	0	0	0	0	1
Augen_con	0	0	0	0	0	0	1
IK_Aug_R	0	0	0	0	0	0	1
IK_Aug_L	0	0	0	0	0	0	1
Aug_R	0	0	0	0	0	0	1
aug_L	0	0	0	0	0	0	1
Ohr_L	0	0	0	0	0	0	1
Ohr_R	0	0	0	0	0	0	1
Braun_O_L	0	0	0	0	0	0	1
Braun_O_R	0	0	0	0	0	0	1
aug_lied_O_L	0	0	0	0	0	0	1
aug_lied_O_R	0	0	0	0	0	0	1
aug_lied_U_L	0	0	0	0	0	0	1
aug_lied_U_R	0	0	0	0	0	0	1
Bauch_003	0	0	0	0	0	0	1
Schalterplatte_L	0	0	0	0	0	0	1
Oberarm_L	0	0	0	0	0	0	1
Unterarm_L	0	0	0	0	0	0	1
Vorderpfote_L	0	0	0	0	0	0	1
Schalterplatte_R	0	0	0	0	0	0	1
Oberarm_R	0	0	0	0	0	0	1
Unterarm_R	0	0	0	0	0	0	1
Vorderpfote_R	0	0	0	0	0	0	1
Schwanz	0	0	0	0	0	0	1
Schwanz_001	0	0	0	0	0	0	1
Schwanz_002	0	0	0	0	0	0	1
Schwanz_003	0	0	0	0	0	0	1
Oberschenkel_L	0	0	0	0	0	0	1
Unterschenkel_L	0	0	0	0	0	0	1
Pfote1_L	0	0	0	0	0	0	1
Pfote2_L	0	0	0	0	0	0	1
Oberschenkel_R	0	0	0	0	0	0	1
Unterschenkel_R	0	0	0	0	0	0	1
Pfote1_R	0	0	0	0	0	0	1
Pfote2_R	0	0	0	0	0	0	1
[Wolf]
16	0	0	0	-90	-0	0	1.0
17	0	0	0	-90	-0	0	1.0
18	0	0	0	-90	-0	0	1.0
[Becken]
16	0	-0.1682401001	0.5720800161	-1.91564709e-06	164.6087799	90	1.0
17	0	-0.2781440318	0.614544034	-1.91564709e-06	159.9206696	90	1.0
18	0	-0.4238980412	0.7060700655	-1.91564709e-06	154.644043	90	1.0
[Bauch]
16	1.016634703	7.68020243e-08	-0.3789089322	8.746882827e-07	18.21252251	4.853698101e-07	1.0
17	0.8997631669	7.68020243e-08	-0.4490224719	8.746882827e-07	22.49678421	4.853698101e-07	1.0
18	0.7828916311	7.68020243e-08	-0.5191360712	8.746882827e-07	26.58311272	4.853698101e-07	1.0
[Bauch_001]
16	0.57433182	4.020625255e-08	0.3555828333	1.051260369e-06	14.04706287	4.625552208e-08	1.0
17	0.562281549	4.020625255e-08	0.3436069191	1.051260369e-06	13.9013319	4.625552208e-08	1.0
18	0.5502312779	4.020625255e-08	0.3163668811	1.051260369e-06	13.57903004	4.625552208e-08	1.0
[Brust]
16	1.088848233	8.38275227e-08	0.3179832697	-2.585561106e-06	24.51869392	-6.053789093e-06	1.0
17	1.095063925	8.38275227e-08	0.4198967814	-2.585561106e-06	28.30099297	-6.053789093e-06	1.0
18	1.101279855	8.38275227e-08	0.5081174374	-2.585561106e-06	31.56895065	-6.053789093e-06	1.0
[Hals]
16	1.398695469	9.550224433e-08	0.8447219133	-1.920878731e-06	18.55396271	-4.161266588e-06	1.0
17	1.356188536	9.550224433e-08	0.8156552911	-1.920878731e-06	15.34604359	-4.161266588e-06	1.0
18	1.319397449	9.550224433e-08	0.7904922962	-1.920878731e-06	12.57288456	-4.161266588e-06	1.0
[Kopf_002]
16	1.752594829	3.013231981e-05	0.2651812136	0.006653484888	-165.1497192	0.002557621803	1.0
17	1.752594829	3.013231981e-05	0.2651812136	0.006653484888	-165.1497192	0.002557621803	1.0
18	1.752594829	3.013231981e-05	0.2651812136	0.006653484888	-165.1497192	0.002557621803	1.0
[Kopf]
16	1.039503217	7.839815908e-08	-0.0235968437	0.06657926738	120.824501	-0.02786722593	1.0
17	1.039002657	7.839815908e-08	-0.03158127517	0.06171177328	116.5180206	-0.03216425329	1.0
18	1.038502097	7.839815908e-08	-0.03956570476	0.05623054132	112.7992935	-0.03715971112	1.0
[Unterkiefer]
16	0.6370446682	0.004552738741	0.4060619473	5.41272068	-68.38880157	-3.093541861	1.0
17	0.6370446682	0.004552738741	0.4060619473	5.41272068	-68.38880157	-3.093541861	1.0
18	0.6370446682	0.004552738741	0.4060619473	5.41272068	-68.38880157	-3.093541861	1.0
[Hals_fett]
16	0.2998236716	0.007747383788	0.1206455454	-5.071650982	-59.35961151	5.585565567	1.0
17	0.2998236716	0.007747383788	0.1206455454	-5.071650982	-59.35961151	5.585565567	1.0
18	0.2998236716	0.007747383788	0.1206455454	-5.071650982	-59.35961151	5.585565567	1.0
[Maulunten]
16	0.08317924291	-0.007747320924	-0.1206462979	-3.322208881	38.97270966	-0.8718757033	1.0
17	0.08317924291	-0.007747320924	-0.1206462979	-3.322208881	38.97270966	-0.8718757033	1.0
18	0.08317924291	-0.007747320924	-0.1206462979	-3.322208881	38.97270966	-0.8718757033	1.0
[Mauloben]
16	0.9101490974	0.0004056780017	0.400369823	-0.103267692	-28.77768707	0.0354314521	1.0
17	0.9101490974	0.0004056780017	0.400369823	-0.103267692	-28.77768707	0.0354314521	1.0
18	0.9101490974	0.0004056780017	0.400369823	-0.103267692	-28.77768707	0.0354314521	1.0
[MundW_L]
16	0.6730612516	-0.3618556559	0.3751283288	-179.8370972	-17.94884682	24.71397018	1.0
17	0.6730612516	-0.3618556559	0.3751283288	-179.8370972	-17.94884682	24.71397018	1.0
18	0.6730612516	-0.3618556559	0.3751283288	-179.8370972	-17.94884682	24.71397018	1.0
[MundW_R]
16	0.6732413769	0.362703532	0.3739836514	179.665329	-18.0242691	-24.69084167	1.0
17	0.6732413769	0.362703532	0.3739836514	179.665329	-18.0242691	-24.69084167	1.0
18	0.6732413769	0.362703532	0.3739836514	179.665329	-18.0242691	-24.69084167	1.0
[Augen_con]
16	1.807373762	-0.0001604075951	0.1835815907	0.09822228551	157.1545258	0.02385941148	1.0
17	1.807373762	-0.0001604075951	0.1835815907	0.09822228551	157.1545258	0.02385941148	1.0
18	1.807373762	-0.0001604075951	0.1835815907	0.09822228551	157.1545258	0.02385941148	1.0
[IK_Aug_R]
16	0.3461297154	0.2943200171	3.136494797e-07	-0.4194768965	-4.963055134	165.6946411	1.0
17	0.3461297154	0.2943200171	3.136494797e-07	-0.4194768965	-4.963055134	165.6946411	1.0
18	0.3461297154	0.2943200171	3.136494797e-07	-0.4194768965	-4.963055134	165.6946411	1.0
[IK_Aug_L]
16	0.3461298645	-0.2943200171	3.034585916e-07	0.4194775522	-4.963055611	-165.6946411	1.0
17	0.3461298645	-0.2943200171	3.034585916e-07	0.4194775522	-4.963055611	-165.6946411	1.0
18	0.3461298645	-0.2943200171	3.034585916e-07	0.4194775522	-4.963055611	-165.6946411	1.0
[Aug_R]
16	1.035154939	0.220780611	-0.09605786204	176.004776	-17.29164886	12.85548782	1.0
17	1.035154939	0.220780611	-0.09605786204	176.004776	-17.29164886	12.85548782	1.0
18	1.035154939	0.220780611	-0.09605786204	176.004776	-17.29164886	12.85548782	1.0
[aug_L]
16	1.035047412	-0.2215989083	-0.09536846727	-176.1891174	-17.33176422	-12.83101749	1.0
17	1.035047412	-0.2215989083	-0.09536846727	-176.1891174	-17.33176422	-12.83101749	1.0
18	1.035047412	-0.2215989083	-0.09536846727	-176.1891174	-17.33176422	-12.83101749	1.0
[Ohr_L]
16	0.6407766938	-0.365999192	-0.6893325448	-24.34924316	53.07766342	-15.02013397	1.0
17	0.6407766938	-0.365999192	-0.6893325448	-24.34924316	53.07766342	-15.02013397	1.0
18	0.6407766938	-0.365999192	-0.6893325448	-24.34924316	53.07766342	-15.02013397	1.0
[Ohr_R]
16	0.6409586668	0.3634999394	-0.6904851198	24.05786133	53.12416458	14.75857353	1.0
17	0.6409586668	0.3634999394	-0.6904851198	24.05786133	53.12416458	14.75857353	1.0
18	0.6409586668	0.3634999394	-0.6904851198	24.05786133	53.12416458	14.75857353	1.0
[Braun_O_L]
16	0.9801893234	-0.3706049621	-0.3292511106	-143.317215	-34.69634628	52.39493942	1.0
17	0.9801893234	-0.3706049621	-0.3292511106	-143.317215	-34.69634628	52.39493942	1.0
18	0.9801893234	-0.3706049621	-0.3292511106	-143.317215	-34.69634628	52.39493942	1.0
[Braun_O_R]
16	0.9803637862	0.369074285	-0.3304226696	143.182663	-34.83971786	-52.3467598	1.0
17	0.9803637862	0.369074285	-0.3304226696	143.182663	-34.83971786	-52.3467598	1.0
18	0.9803637862	0.369074285	-0.3304226696	143.182663	-34.83971786	-52.3467598	1.0
[aug_lied_O_L]
16	1.038882613	-0.3271434009	-0.1608110666	-175.8613434	-20.15596771	60.31667709	1.0
17	1.038882613	-0.3271434009	-0.1608110666	-175.8613434	-20.15596771	60.31667709	1.0
18	1.038882613	-0.3271434009	-0.1608110666	-175.8613434	-20.15596771	60.31667709	1.0
[aug_lied_O_R]
16	1.039044976	0.326115787	-0.1618431509	175.7657928	-20.31323814	-60.31218338	1.0
17	1.039044976	0.326115787	-0.1618431509	175.7657928	-20.31323814	-60.31218338	1.0
18	1.039044976	0.326115787	-0.1618431509	175.7657928	-20.31323814	-60.31218338	1.0
[aug_lied_U_L]
16	1.021916747	-0.3312866092	-0.1338487417	-159.8099365	-28.7482872	60.17462158	1.0
17	1.021916747	-0.3312866092	-0.1338487417	-159.8099365	-28.7482872	60.17462158	1.0
18	1.021916747	-0.3312866092	-0.1338487417	-159.8099365	-28.7482872	60.17462158	1.0
[aug_lied_U_R]
16	1.022078514	0.3303526044	-0.1348845363	159.7071381	-28.90531921	-60.15359879	1.0
17	1.022078514	0.3303526044	-0.1348845363	159.7071381	-28.90531921	-60.15359879	1.0
18	1.022078514	0.3303526044	-0.1348845363	159.7071381	-28.90531921	-60.15359879	1.0
[Bauch_003]
16	1.276869178	9.640092458e-08	-0.6079563498	-3.938861937e-06	-137.6799469	1.017604518e-05	1.0
17	1.276869178	9.640092458e-08	-0.6079563498	-3.938861937e-06	-137.6799469	1.017604518e-05	1.0
18	1.276869178	9.640092458e-08	-0.6079563498	-3.938861937e-06	-137.6799469	1.017604518e-05	1.0
[Schalterplatte_L]
16	0.8925708532	-0.3820799291	2.05982893e-08	-113.2777557	63.3986969	-145.8682556	1.0
17	0.8925708532	-0.3820799291	2.05982893e-08	-108.4932022	68.19668579	-138.8940125	1.0
18	0.8925708532	-0.3820799291	2.05982893e-08	-99.52697754	72.92289734	-128.455368	1.0
[Oberarm_L]
16	1.418637037	6.984918599e-08	2.142041922e-07	-136.4974976	-51.00808716	160.0886993	1.0
17	1.418637037	6.984918599e-08	2.142041922e-07	-122.082634	-59.73530197	140.9450989	1.0
18	1.418637037	6.984918599e-08	2.142041922e-07	-107.1030426	-64.01613617	122.3339005	1.0
[Unterarm_L]
16	2.028227091	1.769512892e-07	2.468004823e-07	62.82906723	74.45563507	72.89321136	1.0
17	2.028227091	1.769512892e-07	2.468004823e-07	50.00586319	75.41647339	57.98765564	1.0
18	2.028227091	1.769512892e-07	2.468004823e-07	35.67439651	74.70407104	41.55330276	1.0
[Vorderpfote_L]
16	1.705947876	2.095475793e-07	-1.816079021e-07	-12.90697479	-22.96561813	19.54317665	1.0
17	1.705947876	2.095475793e-07	-1.816079021e-07	-12.4019289	-14.38975143	17.35794449	1.0
18	1.705947876	2.095475793e-07	-1.816079021e-07	-11.20426846	-0.2237480134	14.38760948	1.0
[Schalterplatte_R]
16	0.892570734	0.3820800781	8.883210967e-08	122.8521805	67.06580353	164.7325134	1.0
17	0.892570734	0.3820800781	8.883210967e-08	122.1854019	67.87531281	163.716095	1.0
18	0.892570734	0.3820800781	8.883210967e-08	116.299057	71.92289734	155.9782715	1.0
[Oberarm_R]
16	1.418637633	1.862644972e-08	1.862644972e-08	130.936142	-31.66280365	-166.0192719	1.0
17	1.418637633	1.862644972e-08	1.862644972e-08	127.6318665	-38.02227402	-158.9879913	1.0
18	1.418637633	1.862644972e-08	1.862644972e-08	116.8403244	-46.97795486	-141.3482208	1.0
[Unterarm_R]
16	2.028232336	9.313225746e-08	-3.247987479e-07	-13.82923317	69.49967194	-17.65189171	1.0
17	2.028232336	9.313225746e-08	-3.247987479e-07	-18.72510338	75.94100189	-22.08608437	1.0
18	2.028232336	9.313225746e-08	-3.247987479e-07	-11.81568527	77.56908417	-14.00256634	1.0
[Vorderpfote_R]
16	1.705937147	1.11758709e-07	-3.015156835e-07	19.24801064	-32.75312424	-11.64632511	1.0
17	1.705937147	1.11758709e-07	-3.015156835e-07	20.35477066	-26.24489975	-12.9948597	1.0
18	1.705937147	1.11758709e-07	-3.015156835e-07	20.25754356	-18.57407951	-12.23159981	1.0
[Schwanz]
16	-0.09627509862	-7.265629876e-09	0.1733478755	0.4188019037	-143.1769409	-1.804374576	1.0
17	-0.07239693403	-7.265629876e-09	-0.01371549442	0.1871986687	-149.6451569	-1.678678989	1.0
18	-0.05016098917	-7.265629876e-09	-0.1687513292	0.01596244797	-154.9069977	-1.598039865	1.0
[Schwanz_001]
16	0.9104328156	6.635672634e-08	-8.707502275e-08	0.08154704422	10.85203743	-0.5387987494	1.0
17	0.9104328156	6.635672634e-08	-8.707502275e-08	0.1800247282	16.52722549	-0.4484809041	1.0
18	0.9104328156	6.635672634e-08	-8.707502275e-08	0.2666775584	21.06565666	-0.367993176	1.0
[Schwanz_002]
16	0.7855660915	6.082701276e-08	-2.382875941e-08	0.7639352083	15.63883018	-0.5544801354	1.0
17	0.7855660915	6.082701276e-08	-2.382875941e-08	0.7840427756	20.01452065	-0.4915917814	1.0
18	0.7855660915	6.082701276e-08	-2.382875941e-08	0.8038339019	23.53978729	-0.4386628568	1.0
[Schwanz_003]
16	0.8350354433	5.987204332e-08	5.614651855e-08	8.880763289e-07	-11.60312271	-8.974389942e-08	1.0
17	0.8350354433	5.987204332e-08	5.614651855e-08	8.880763289e-07	-11.60312271	-8.974389942e-08	1.0
18	0.8350354433	5.987204332e-08	5.614651855e-08	8.880763289e-07	-11.60312271	-8.974389942e-08	1.0
[Oberschenkel_L]
16	0.03964243457	-0.5834400654	0.3364073634	13.33589268	-54.24364853	-7.555833817	1.0
17	-0.09003154933	-0.5834400654	0.4282614589	16.02420425	-62.71929169	-10.66090775	1.0
18	-0.2022941709	-0.5834400654	0.5077846646	20.4585247	-70.04434204	-15.45023632	1.0
[Unterschenkel_L]
16	1.686439037	1.338776201e-07	-7.450580597e-08	-8.587920189	-14.42413139	15.6352129	1.0
17	1.686439037	1.338776201e-07	-7.450580597e-08	-8.080827713	-17.47068596	17.24978638	1.0
18	1.686439037	1.338776201e-07	-7.450580597e-08	-6.272430897	-9.134437561	15.42723942	1.0
[Pfote1_L]
16	1.190900326	9.313225746e-08	1.065200195e-07	2.135835648	34.63357925	-6.141629219	1.0
17	1.190900326	9.313225746e-08	1.065200195e-07	0.5606569052	50.42631149	-8.355300903	1.0
18	1.190900326	9.313225746e-08	1.065200195e-07	1.835940242	26.06048965	-5.92115736	1.0
[Pfote2_L]
16	0.9876260161	9.313225746e-08	-5.820770088e-09	0.04350814223	47.73147583	-4.727974415	1.0
17	0.9876260161	9.313225746e-08	-5.820770088e-09	1.310753584	51.25281525	-3.331088543	1.0
18	0.9876260161	9.313225746e-08	-5.820770088e-09	13.07008171	81.04577637	6.838592052	1.0
[Oberschenkel_R]
16	0.1349970847	0.5836999416	0.4043288529	-14.28785324	-58.12198639	8.700972557	1.0
17	0.005323860794	0.5836999416	0.4961868823	-14.14589596	-57.60017395	8.533210754	1.0
18	-0.1069396734	0.5836999416	0.5757052302	-17.50370789	-65.01514435	12.25104904	1.0
[Unterschenkel_R]
16	1.68644917	1.234002411e-07	9.313230187e-09	-134.6313324	-115.4065475	133.013382	1.0
17	1.68644917	1.234002411e-07	9.313230187e-09	-72.87319183	-111.7185135	80.79551697	1.0
18	1.68644917	1.234002411e-07	9.313230187e-09	-43.39709854	-115.594574	54.20225906	1.0
[Pfote1_R]
16	1.190900326	4.656610209e-09	5.355104804e-08	-2.245425224	33.83826447	5.944654465	1.0
17	1.190900326	4.656610209e-09	5.355104804e-08	-2.16817522	32.01055145	6.087635994	1.0
18	1.190900326	4.656610209e-09	5.355104804e-08	-3.463107109	47.14040756	4.297849655	1.0
[Pfote2_R]
16	0.9876259565	8.381903172e-08	1.071020961e-07	-33.2350769	83.8822937	-29.0262928	1.0
17	0.9876259565	8.381903172e-08	1.071020961e-07	-31.24747467	64.91586304	-27.05607414	1.0
18	0.9876259565	8.381903172e-08	1.071020961e-07	-22.60164261	31.68152618	-15.42558575	1.0
[EndOfFile]
